<mxfile host="app.diagrams.net" modified="2024-05-05T13:54:28.076Z" agent="Mozilla/5.0 (Windows NT 10.0; Win64; x64) AppleWebKit/537.36 (KHTML, like Gecko) Chrome/124.0.0.0 Safari/537.36" etag="YuU_Q33wtYBTQX_lSID8" version="24.2.8" type="device">
  <diagram name="Page-1" id="C7XOjNt3UiNYZ5zzazVq">
    <mxGraphModel dx="1195" dy="615" grid="1" gridSize="10" guides="1" tooltips="1" connect="1" arrows="1" fold="1" page="1" pageScale="1" pageWidth="850" pageHeight="1100" math="0" shadow="0">
      <root>
        <mxCell id="0" />
        <mxCell id="1" parent="0" />
        <mxCell id="5_l77qG0_IROxDnhUQ7W-1" value="" style="rounded=0;whiteSpace=wrap;html=1;fillColor=none;" vertex="1" parent="1">
          <mxGeometry x="330" y="30" width="210" height="740" as="geometry" />
        </mxCell>
        <mxCell id="5_l77qG0_IROxDnhUQ7W-28" style="rounded=0;orthogonalLoop=1;jettySize=auto;html=1;entryX=0;entryY=0.5;entryDx=0;entryDy=0;" edge="1" parent="1" source="5_l77qG0_IROxDnhUQ7W-2" target="5_l77qG0_IROxDnhUQ7W-21">
          <mxGeometry relative="1" as="geometry" />
        </mxCell>
        <mxCell id="5_l77qG0_IROxDnhUQ7W-30" style="edgeStyle=none;rounded=0;orthogonalLoop=1;jettySize=auto;html=1;entryX=0;entryY=0.5;entryDx=0;entryDy=0;strokeColor=default;align=center;verticalAlign=middle;fontFamily=Helvetica;fontSize=11;fontColor=default;labelBackgroundColor=default;endArrow=classic;" edge="1" parent="1" source="5_l77qG0_IROxDnhUQ7W-2" target="5_l77qG0_IROxDnhUQ7W-23">
          <mxGeometry relative="1" as="geometry" />
        </mxCell>
        <mxCell id="5_l77qG0_IROxDnhUQ7W-2" value="Клиент&lt;div&gt;&lt;br&gt;&lt;/div&gt;" style="shape=umlActor;verticalLabelPosition=bottom;verticalAlign=top;html=1;outlineConnect=0;" vertex="1" parent="1">
          <mxGeometry x="170" y="330" width="30" height="60" as="geometry" />
        </mxCell>
        <mxCell id="5_l77qG0_IROxDnhUQ7W-17" style="edgeStyle=orthogonalEdgeStyle;rounded=0;orthogonalLoop=1;jettySize=auto;html=1;entryX=1;entryY=0.5;entryDx=0;entryDy=0;" edge="1" parent="1" source="5_l77qG0_IROxDnhUQ7W-3" target="5_l77qG0_IROxDnhUQ7W-14">
          <mxGeometry relative="1" as="geometry" />
        </mxCell>
        <mxCell id="5_l77qG0_IROxDnhUQ7W-3" value="&lt;div&gt;Отдел закупок&lt;/div&gt;&lt;div&gt;&lt;br&gt;&lt;/div&gt;" style="shape=umlActor;verticalLabelPosition=bottom;verticalAlign=top;html=1;outlineConnect=0;" vertex="1" parent="1">
          <mxGeometry x="660" y="50" width="30" height="60" as="geometry" />
        </mxCell>
        <mxCell id="5_l77qG0_IROxDnhUQ7W-4" value="&lt;div&gt;Менеджер&lt;/div&gt;" style="shape=umlActor;verticalLabelPosition=bottom;verticalAlign=top;html=1;outlineConnect=0;" vertex="1" parent="1">
          <mxGeometry x="660" y="160" width="30" height="60" as="geometry" />
        </mxCell>
        <mxCell id="5_l77qG0_IROxDnhUQ7W-38" style="edgeStyle=none;rounded=0;orthogonalLoop=1;jettySize=auto;html=1;strokeColor=default;align=center;verticalAlign=middle;fontFamily=Helvetica;fontSize=11;fontColor=default;labelBackgroundColor=default;endArrow=classic;" edge="1" parent="1" source="5_l77qG0_IROxDnhUQ7W-6" target="5_l77qG0_IROxDnhUQ7W-22">
          <mxGeometry relative="1" as="geometry" />
        </mxCell>
        <mxCell id="5_l77qG0_IROxDnhUQ7W-6" value="&lt;div&gt;Служба доставки&lt;/div&gt;&lt;div&gt;&lt;br&gt;&lt;/div&gt;" style="shape=umlActor;verticalLabelPosition=bottom;verticalAlign=top;html=1;outlineConnect=0;" vertex="1" parent="1">
          <mxGeometry x="660" y="270" width="30" height="60" as="geometry" />
        </mxCell>
        <mxCell id="5_l77qG0_IROxDnhUQ7W-37" style="edgeStyle=none;rounded=0;orthogonalLoop=1;jettySize=auto;html=1;entryX=1;entryY=0.5;entryDx=0;entryDy=0;strokeColor=default;align=center;verticalAlign=middle;fontFamily=Helvetica;fontSize=11;fontColor=default;labelBackgroundColor=default;endArrow=classic;" edge="1" parent="1" source="5_l77qG0_IROxDnhUQ7W-7" target="5_l77qG0_IROxDnhUQ7W-24">
          <mxGeometry relative="1" as="geometry" />
        </mxCell>
        <mxCell id="5_l77qG0_IROxDnhUQ7W-7" value="Служба поддержки" style="shape=umlActor;verticalLabelPosition=bottom;verticalAlign=top;html=1;outlineConnect=0;" vertex="1" parent="1">
          <mxGeometry x="660" y="390" width="30" height="60" as="geometry" />
        </mxCell>
        <mxCell id="5_l77qG0_IROxDnhUQ7W-36" style="edgeStyle=none;rounded=0;orthogonalLoop=1;jettySize=auto;html=1;strokeColor=default;align=center;verticalAlign=middle;fontFamily=Helvetica;fontSize=11;fontColor=default;labelBackgroundColor=default;endArrow=classic;" edge="1" parent="1" source="5_l77qG0_IROxDnhUQ7W-13" target="5_l77qG0_IROxDnhUQ7W-35">
          <mxGeometry relative="1" as="geometry" />
        </mxCell>
        <mxCell id="5_l77qG0_IROxDnhUQ7W-13" value="Отдел пошива" style="shape=umlActor;verticalLabelPosition=bottom;verticalAlign=top;html=1;outlineConnect=0;" vertex="1" parent="1">
          <mxGeometry x="660" y="500" width="30" height="60" as="geometry" />
        </mxCell>
        <mxCell id="5_l77qG0_IROxDnhUQ7W-26" style="edgeStyle=orthogonalEdgeStyle;rounded=0;orthogonalLoop=1;jettySize=auto;html=1;exitX=0.5;exitY=1;exitDx=0;exitDy=0;entryX=0.5;entryY=0;entryDx=0;entryDy=0;dashed=1;" edge="1" parent="1" source="5_l77qG0_IROxDnhUQ7W-14" target="5_l77qG0_IROxDnhUQ7W-18">
          <mxGeometry relative="1" as="geometry" />
        </mxCell>
        <mxCell id="5_l77qG0_IROxDnhUQ7W-14" value="Закупка" style="ellipse;whiteSpace=wrap;html=1;fillColor=none;" vertex="1" parent="1">
          <mxGeometry x="372.5" y="50" width="115" height="60" as="geometry" />
        </mxCell>
        <mxCell id="5_l77qG0_IROxDnhUQ7W-18" value="Отслеживание запасов" style="ellipse;whiteSpace=wrap;html=1;fillColor=none;" vertex="1" parent="1">
          <mxGeometry x="372.5" y="130" width="115" height="60" as="geometry" />
        </mxCell>
        <mxCell id="5_l77qG0_IROxDnhUQ7W-21" value="Покупка" style="ellipse;whiteSpace=wrap;html=1;fillColor=none;" vertex="1" parent="1">
          <mxGeometry x="372.5" y="200" width="115" height="60" as="geometry" />
        </mxCell>
        <mxCell id="5_l77qG0_IROxDnhUQ7W-22" value="Доставка" style="ellipse;whiteSpace=wrap;html=1;fillColor=none;" vertex="1" parent="1">
          <mxGeometry x="372.5" y="270" width="115" height="60" as="geometry" />
        </mxCell>
        <mxCell id="5_l77qG0_IROxDnhUQ7W-32" style="edgeStyle=none;rounded=0;orthogonalLoop=1;jettySize=auto;html=1;strokeColor=default;align=center;verticalAlign=middle;fontFamily=Helvetica;fontSize=11;fontColor=default;labelBackgroundColor=default;endArrow=classic;dashed=1;" edge="1" parent="1" source="5_l77qG0_IROxDnhUQ7W-23" target="5_l77qG0_IROxDnhUQ7W-24">
          <mxGeometry relative="1" as="geometry" />
        </mxCell>
        <mxCell id="5_l77qG0_IROxDnhUQ7W-23" value="Обращение в службу поддержки" style="ellipse;whiteSpace=wrap;html=1;fillColor=none;" vertex="1" parent="1">
          <mxGeometry x="372.5" y="350" width="115" height="60" as="geometry" />
        </mxCell>
        <mxCell id="5_l77qG0_IROxDnhUQ7W-24" value="Возврат/обмен товара" style="ellipse;whiteSpace=wrap;html=1;fillColor=none;" vertex="1" parent="1">
          <mxGeometry x="372.5" y="430" width="115" height="60" as="geometry" />
        </mxCell>
        <mxCell id="5_l77qG0_IROxDnhUQ7W-25" value="Программа лояльности" style="ellipse;whiteSpace=wrap;html=1;fillColor=none;" vertex="1" parent="1">
          <mxGeometry x="372.5" y="510" width="115" height="60" as="geometry" />
        </mxCell>
        <mxCell id="5_l77qG0_IROxDnhUQ7W-27" value="include" style="text;html=1;align=center;verticalAlign=middle;resizable=0;points=[];autosize=1;strokeColor=none;fillColor=none;" vertex="1" parent="1">
          <mxGeometry x="440" y="100" width="60" height="30" as="geometry" />
        </mxCell>
        <mxCell id="5_l77qG0_IROxDnhUQ7W-29" style="edgeStyle=none;rounded=0;orthogonalLoop=1;jettySize=auto;html=1;entryX=0.007;entryY=0.653;entryDx=0;entryDy=0;entryPerimeter=0;strokeColor=default;align=center;verticalAlign=middle;fontFamily=Helvetica;fontSize=11;fontColor=default;labelBackgroundColor=default;endArrow=classic;" edge="1" parent="1" source="5_l77qG0_IROxDnhUQ7W-2" target="5_l77qG0_IROxDnhUQ7W-22">
          <mxGeometry relative="1" as="geometry" />
        </mxCell>
        <mxCell id="5_l77qG0_IROxDnhUQ7W-33" value="include" style="text;html=1;align=center;verticalAlign=middle;resizable=0;points=[];autosize=1;strokeColor=none;fillColor=none;" vertex="1" parent="1">
          <mxGeometry x="440" y="405" width="60" height="30" as="geometry" />
        </mxCell>
        <mxCell id="5_l77qG0_IROxDnhUQ7W-42" style="edgeStyle=none;rounded=0;orthogonalLoop=1;jettySize=auto;html=1;exitX=0.5;exitY=1;exitDx=0;exitDy=0;strokeColor=default;align=center;verticalAlign=middle;fontFamily=Helvetica;fontSize=11;fontColor=default;labelBackgroundColor=default;endArrow=classic;dashed=1;" edge="1" parent="1" source="5_l77qG0_IROxDnhUQ7W-34" target="5_l77qG0_IROxDnhUQ7W-35">
          <mxGeometry relative="1" as="geometry" />
        </mxCell>
        <mxCell id="5_l77qG0_IROxDnhUQ7W-34" value="Услуга индивидуального пошива" style="ellipse;whiteSpace=wrap;html=1;fillColor=none;" vertex="1" parent="1">
          <mxGeometry x="372.5" y="590" width="115" height="60" as="geometry" />
        </mxCell>
        <mxCell id="5_l77qG0_IROxDnhUQ7W-35" value="Программа лояльности" style="ellipse;whiteSpace=wrap;html=1;fillColor=none;" vertex="1" parent="1">
          <mxGeometry x="372.5" y="670" width="115" height="60" as="geometry" />
        </mxCell>
        <mxCell id="5_l77qG0_IROxDnhUQ7W-39" style="edgeStyle=none;rounded=0;orthogonalLoop=1;jettySize=auto;html=1;entryX=0.993;entryY=0.403;entryDx=0;entryDy=0;entryPerimeter=0;strokeColor=default;align=center;verticalAlign=middle;fontFamily=Helvetica;fontSize=11;fontColor=default;labelBackgroundColor=default;endArrow=classic;" edge="1" parent="1" source="5_l77qG0_IROxDnhUQ7W-4" target="5_l77qG0_IROxDnhUQ7W-21">
          <mxGeometry relative="1" as="geometry" />
        </mxCell>
        <mxCell id="5_l77qG0_IROxDnhUQ7W-40" style="edgeStyle=none;rounded=0;orthogonalLoop=1;jettySize=auto;html=1;entryX=0.043;entryY=0.347;entryDx=0;entryDy=0;entryPerimeter=0;strokeColor=default;align=center;verticalAlign=middle;fontFamily=Helvetica;fontSize=11;fontColor=default;labelBackgroundColor=default;endArrow=classic;" edge="1" parent="1" source="5_l77qG0_IROxDnhUQ7W-2" target="5_l77qG0_IROxDnhUQ7W-25">
          <mxGeometry relative="1" as="geometry" />
        </mxCell>
        <mxCell id="5_l77qG0_IROxDnhUQ7W-41" style="edgeStyle=none;rounded=0;orthogonalLoop=1;jettySize=auto;html=1;entryX=-0.007;entryY=0.347;entryDx=0;entryDy=0;entryPerimeter=0;strokeColor=default;align=center;verticalAlign=middle;fontFamily=Helvetica;fontSize=11;fontColor=default;labelBackgroundColor=default;endArrow=classic;" edge="1" parent="1" source="5_l77qG0_IROxDnhUQ7W-2" target="5_l77qG0_IROxDnhUQ7W-34">
          <mxGeometry relative="1" as="geometry" />
        </mxCell>
        <mxCell id="5_l77qG0_IROxDnhUQ7W-43" value="include" style="text;html=1;align=center;verticalAlign=middle;resizable=0;points=[];autosize=1;strokeColor=none;fillColor=none;" vertex="1" parent="1">
          <mxGeometry x="430" y="640" width="60" height="30" as="geometry" />
        </mxCell>
      </root>
    </mxGraphModel>
  </diagram>
</mxfile>
